<?xml version="1.0" encoding="UTF-8" standalone="no"?>
<!-- Created with Inkscape (http://www.inkscape.org/) -->

<svg
   width="138.57822mm"
   height="50.34634mm"
   viewBox="0 0 138.57822 50.34634"
   version="1.1"
   id="svg1"
   xmlns="http://www.w3.org/2000/svg"
   xmlns:svg="http://www.w3.org/2000/svg">
  <defs
     id="defs1" />
  <g
     id="layer1"
     transform="translate(-35.710892,-100.54301)">
    <path
       d="m 38.125716,146.89662 q 0.317603,1.51995 1.134295,2.15516 0.839379,0.61252 2.38202,0.61252 0.748634,0 1.293096,-0.18149 0.544462,-0.18149 0.88475,-0.47641 0.362974,-0.3176 0.544462,-0.70326 0.181487,-0.38566 0.181487,-0.81669 0,-0.86206 -0.567148,-1.27041 -0.544461,-0.43103 -1.383839,-0.65789 -0.839379,-0.24955 -1.814872,-0.40835 -0.975494,-0.18149 -1.814872,-0.52177 -0.839379,-0.34029 -1.406526,-0.9755 -0.544462,-0.6352 -0.544462,-1.79218 0,-1.47459 1.066237,-2.40471 1.088924,-0.95281 3.062597,-0.95281 1.905615,0 3.085282,0.86207 1.202353,0.83938 1.451898,2.83573 h -1.38384 q -0.181487,-1.36115 -1.043551,-1.90561 -0.839379,-0.56715 -2.132475,-0.56715 -1.293096,0 -1.973673,0.56715 -0.680577,0.54446 -0.680577,1.4519 0,0.794 0.544461,1.22504 0.567148,0.40834 1.406526,0.68057 0.839378,0.24955 1.814872,0.45372 0.975494,0.20417 1.814872,0.58983 0.839378,0.36298 1.38384,0.99818 0.567147,0.63521 0.567147,1.7695 0,0.83938 -0.362974,1.49727 -0.362974,0.63521 -0.99818,1.06624 -0.635205,0.43103 -1.519955,0.63521 -0.862064,0.22685 -1.905615,0.22685 -1.043552,0 -1.860244,-0.3176 -0.794007,-0.29492 -1.361154,-0.83938 -0.567148,-0.54446 -0.88475,-1.27041 -0.317603,-0.72595 -0.362975,-1.56532 z m 16.165609,3.67511 v -11.75129 h 1.361154 v 11.75129 z m -0.06806,-14.3148 v -2.01905 h 1.497269 v 2.01905 z m 11.900653,14.3148 h -1.361154 v -11.75129 h 1.361154 v 1.7695 h 0.04537 q 0.521776,-1.02087 1.49727,-1.54265 0.975494,-0.54446 2.132474,-0.54446 0.816693,0 1.38384,0.18149 0.567148,0.18149 0.952808,0.49909 0.408346,0.29492 0.657891,0.70326 0.272231,0.40835 0.453718,0.88475 0.589834,-1.15698 1.565327,-1.70144 0.99818,-0.56715 2.26859,-0.56715 1.202353,0 1.905616,0.40835 0.725949,0.38566 1.111609,1.04355 0.38566,0.63521 0.49909,1.47458 0.136115,0.83938 0.136115,1.72413 v 7.41829 h -1.361154 v -8.12155 q 0,-1.27041 -0.544461,-1.99636 -0.521776,-0.72595 -1.973674,-0.72595 -0.748634,0 -1.451897,0.34029 -0.680577,0.3176 -1.202353,0.99818 -0.226859,0.29492 -0.38566,0.70326 -0.136116,0.38566 -0.226859,0.81669 -0.09074,0.43104 -0.136116,0.86207 -0.02269,0.43103 -0.02269,0.79401 v 6.32936 h -1.361154 v -8.12155 q 0,-1.27041 -0.544461,-1.99636 -0.521776,-0.72595 -1.973673,-0.72595 -0.748635,0 -1.451898,0.34029 -0.680577,0.3176 -1.202353,0.99818 -0.226859,0.29492 -0.38566,0.70326 -0.136115,0.38566 -0.226859,0.81669 -0.09074,0.43104 -0.136115,0.86207 -0.02269,0.43103 -0.02269,0.79401 z m 31.501271,-11.75129 h 1.361154 v 11.75129 h -1.361154 v -1.63338 q -0.272231,0.3176 -0.612519,0.65789 -0.340289,0.34029 -0.794007,0.6352 -0.431032,0.27223 -1.020865,0.45372 -0.589834,0.20417 -1.361154,0.20417 -1.179667,0 -1.973674,-0.3176 -0.794006,-0.34029 -1.293096,-0.93012 -0.476404,-0.58983 -0.703263,-1.36115 -0.204173,-0.79401 -0.204173,-1.72413 v -7.73589 h 1.361154 v 7.7132 q 0,1.51996 0.703263,2.33665 0.703263,0.79401 2.313962,0.79401 0.839378,0 1.497269,-0.31761 0.680577,-0.34029 1.134295,-0.93012 0.453718,-0.58983 0.703263,-1.40652 0.249545,-0.8167 0.249545,-1.79219 z m 10.675611,11.75129 v -16.33385 h 1.36115 v 16.33385 z m 18.34345,-6.17056 q -0.86207,0.36297 -1.74682,0.4764 -0.88475,0.11343 -1.7695,0.18149 -1.56532,0.11343 -2.45007,0.70326 -0.86207,0.58983 -0.86207,1.79219 0,0.54446 0.20417,0.9528 0.22686,0.38566 0.56715,0.6579 0.36298,0.24954 0.81669,0.38566 0.47641,0.11343 0.95281,0.11343 0.81669,0 1.58801,-0.20418 0.77133,-0.20417 1.36116,-0.61252 0.61252,-0.43103 0.97549,-1.06623 0.36298,-0.6579 0.36298,-1.54265 z m -2.29128,-0.68058 q 0.38566,-0.0454 0.90744,-0.13612 0.54446,-0.0907 0.88475,-0.24954 0.34029,-0.1588 0.40834,-0.52178 0.0907,-0.38566 0.0907,-0.70326 0,-1.04355 -0.68058,-1.70144 -0.65789,-0.68058 -2.2459,-0.68058 -0.70327,0 -1.2931,0.13612 -0.58983,0.11343 -1.04355,0.43103 -0.43103,0.29492 -0.72595,0.81669 -0.27223,0.49909 -0.36298,1.27041 h -1.38384 q 0.0681,-1.04355 0.47641,-1.7695 0.40834,-0.74863 1.04355,-1.20235 0.65789,-0.4764 1.49727,-0.68058 0.86206,-0.22686 1.81487,-0.22686 0.88475,0 1.65607,0.20418 0.79401,0.18148 1.36116,0.61252 0.58983,0.40834 0.90743,1.1116 0.34029,0.70327 0.34029,1.72413 v 6.39743 q 0,0.794 0.27223,1.02086 0.29492,0.20418 1.15698,-0.11343 v 1.06624 q -0.1588,0.0454 -0.4764,0.13612 -0.29492,0.0907 -0.58983,0.0907 -0.31761,0 -0.61252,-0.0681 -0.34029,-0.0454 -0.54447,-0.20417 -0.20417,-0.18149 -0.34028,-0.40835 -0.11343,-0.24954 -0.15881,-0.52177 -0.0454,-0.29492 -0.0454,-0.61252 -0.86206,0.9528 -1.97367,1.45189 -1.11161,0.49909 -2.40471,0.49909 -0.77132,0 -1.49727,-0.20417 -0.70326,-0.20417 -1.24772,-0.6352 -0.54446,-0.43104 -0.86206,-1.04356 -0.31761,-0.6352 -0.31761,-1.49726 0,-2.99454 4.10615,-3.53901 z m 17.16378,6.89651 q -0.24955,0.0454 -0.65789,0.1588 -0.40835,0.11343 -0.90744,0.11343 -1.02086,0 -1.56532,-0.49909 -0.52178,-0.52177 -0.52178,-1.83755 v -8.59796 h -1.65607 v -1.13429 h 1.65607 v -3.26677 h 1.36115 v 3.26677 h 2.20054 v 1.13429 h -2.20054 v 8.05349 q 0,0.43104 0.0227,0.74864 0.0227,0.3176 0.13611,0.52178 0.11343,0.20417 0.34029,0.29491 0.24955,0.0907 0.68058,0.0907 0.27223,0 0.54446,-0.0454 0.29492,-0.0454 0.56715,-0.11343 z m 12.67196,0.27223 q -1.13429,-0.0227 -2.13247,-0.40834 -0.97549,-0.38566 -1.72413,-1.15698 -0.72595,-0.77132 -1.15698,-1.9283 -0.43103,-1.15699 -0.43103,-2.69963 0,-1.29309 0.34029,-2.4047 0.34028,-1.1343 1.02086,-1.97368 0.68058,-0.83937 1.70144,-1.31578 1.02087,-0.49909 2.38202,-0.49909 1.38384,0 2.40471,0.49909 1.02086,0.47641 1.70144,1.31578 0.68058,0.8167 0.99818,1.95099 0.34029,1.1343 0.34029,2.42739 0,1.40653 -0.38566,2.54082 -0.38566,1.1343 -1.11161,1.95099 -0.70326,0.81669 -1.72413,1.27041 -0.99818,0.43103 -2.22322,0.43103 z m 3.99272,-6.19325 q 0,-1.04355 -0.22686,-1.95098 -0.22686,-0.90744 -0.70326,-1.56533 -0.4764,-0.68058 -1.22504,-1.06624 -0.74863,-0.38566 -1.83756,-0.38566 -1.06623,0 -1.83755,0.43103 -0.74864,0.40835 -1.22504,1.11161 -0.47641,0.68058 -0.70327,1.58802 -0.22686,0.88475 -0.22686,1.83755 0,1.08893 0.24955,2.01905 0.27223,0.90743 0.77132,1.56533 0.49909,0.65789 1.24772,1.02086 0.74864,0.36298 1.72413,0.36298 1.06624,0 1.81488,-0.40835 0.77132,-0.43103 1.24772,-1.1343 0.4764,-0.70326 0.70326,-1.58801 0.22686,-0.88475 0.22686,-1.83756 z m 11.19738,5.87565 h -1.36115 v -11.75129 h 1.36115 v 2.20053 h 0.0454 q 0.56715,-1.40653 1.4519,-1.95099 0.90744,-0.56715 2.38202,-0.56715 v 1.47459 q -1.15698,-0.0227 -1.90562,0.36297 -0.74863,0.38566 -1.20235,1.04355 -0.43103,0.65789 -0.61252,1.56533 -0.1588,0.88475 -0.1588,1.86024 z"
       id="text2-9"
       style="font-weight:300;font-size:22.6859px;line-height:0.1;font-family:Helvetica;-inkscape-font-specification:'Helvetica, Light';text-align:center;letter-spacing:5.82083px;text-anchor:middle;fill:#8b2a10;stroke-width:0.613133"
       aria-label="simulator" />
    <path
       d="m 35.710895,129.06622 5.584367,-28.52322 9.106814,20.6192 9.433284,-20.6192 5.017338,28.52322 h -4.106657 l -2.560217,-16.01424 -7.852479,17.23421 -7.629104,-17.25139 -2.852323,16.03142 z m 33.832673,0 5.584366,-28.52322 9.106814,20.6192 9.433284,-20.6192 5.017338,28.52322 h -4.106657 l -2.560217,-16.01424 -7.852479,17.23421 -7.629104,-17.25139 -2.852323,16.03142 z m 38.764102,-26.53003 v 26.53003 h -4.00357 v -26.53003 z m 11.92477,12.66362 -7.30263,-12.66362 h 4.5534 l 5.06889,8.98653 5.32663,-8.98653 h 4.58777 l -7.64629,12.66362 8.02431,13.86641 h -4.48468 l -5.87647,-10.15495 -6.0483,10.15495 h -4.53622 z m 31.77075,7.42291 h -11.35775 l -2.95542,6.4435 h -4.31285 l 13.12756,-28.19675 12.66363,28.19675 h -4.38158 z m -1.63236,-3.763 -3.93483,-9.0209 -4.12384,9.0209 z m 16.11735,-16.32353 v 22.76703 h 7.80093 v 3.763 h -11.80449 v -26.53003 z"
       id="text2-7-3"
       style="font-weight:500;font-size:35.1901px;line-height:0.1;font-family:Futura;-inkscape-font-specification:'Futura, Medium';text-align:center;text-anchor:middle;fill:#1e1a14;stroke-width:0.951083"
       aria-label="MMIXAL" />
  </g>
</svg>
